<?xml version="1.0" standalone="no"?>
<!DOCTYPE svg PUBLIC "-//W3C//DTD SVG 20010904//EN"
 "http://www.w3.org/TR/2001/REC-SVG-20010904/DTD/svg10.dtd">
<svg version="1.0" xmlns="http://www.w3.org/2000/svg"
 width="500.000000pt" height="500.000000pt" viewBox="0 0 500.000000 500.000000"
 preserveAspectRatio="xMidYMid meet">
<metadata>
Created by potrace 1.14, written by Peter Selinger 2001-2017
</metadata>
<g transform="translate(0.000000,500.000000) scale(0.100000,-0.100000)"
fill="#000000" stroke="none">
<path d="M860 4879 c-242 -29 -451 -167 -574 -380 -38 -67 -73 -173 -86 -264
-8 -58 -10 -547 -8 -1780 4 -1916 -3 -1745 84 -1922 75 -153 220 -290 372
-353 149 -63 62 -60 1852 -60 1843 0 1711 -6 1885 80 201 98 346 277 403 498
16 62 17 189 17 1797 0 1955 6 1801 -80 1973 -76 152 -190 264 -340 337 -175
86 -17 79 -1835 81 -888 1 -1649 -2 -1690 -7z m1445 -673 c61 -28 102 -73 111
-122 28 -152 -92 -528 -267 -837 -76 -133 -196 -308 -283 -412 -41 -49 -76
-95 -76 -101 0 -19 23 -33 91 -54 107 -33 207 -108 296 -222 l21 -28 156 45
c86 24 194 52 240 61 l83 16 7 422 c11 622 19 807 37 834 20 33 56 39 98 16
60 -32 64 -64 77 -582 6 -207 10 -275 20 -283 16 -13 28 11 114 241 161 432
338 763 492 922 67 69 144 108 211 108 40 0 125 -39 154 -71 65 -72 58 -208
-27 -461 -109 -326 -284 -629 -532 -921 -42 -50 -33 -64 63 -97 41 -14 98 -40
126 -58 48 -31 141 -122 175 -170 l16 -24 84 25 c135 42 317 87 372 93 62 7
106 -8 106 -35 0 -24 -1 -24 -306 -102 l-211 -54 25 -55 c84 -189 107 -308
106 -545 -2 -182 -3 -195 -34 -300 -134 -466 -338 -703 -662 -769 -148 -30
-311 -16 -416 38 -137 70 -276 261 -323 444 -37 144 -22 369 32 475 31 60 101
156 148 202 l41 39 0 288 c0 207 -3 288 -11 288 -6 0 -101 -23 -211 -52 -164
-42 -199 -54 -194 -67 2 -9 21 -59 42 -111 62 -162 78 -257 77 -470 0 -198 -4
-224 -65 -410 -126 -387 -331 -603 -630 -664 -265 -55 -471 19 -614 219 -99
140 -144 280 -144 451 1 211 37 304 192 486 l48 56 0 299 c1 164 7 582 14 928
15 687 16 697 71 711 33 8 82 -12 102 -42 20 -31 32 -190 41 -541 10 -375 13
-377 112 -103 155 430 348 798 506 968 44 47 74 69 119 87 75 31 117 31 180 1z"/>
<path d="M2164 4092 c-161 -118 -323 -395 -511 -870 -74 -188 -157 -429 -167
-485 -7 -36 -6 -38 15 -35 66 9 366 460 544 818 131 262 185 416 188 535 2 72
-11 79 -69 37z"/>
<path d="M3674 4092 c-192 -140 -419 -572 -632 -1207 -55 -164 -59 -185 -33
-185 28 0 122 114 235 285 298 450 490 861 498 1065 4 77 -8 85 -68 42z"/>
<path d="M1651 2613 c-46 -14 -62 -14 -118 -3 -35 7 -67 10 -70 7 -3 -4 -16
-48 -30 -99 -17 -66 -27 -142 -34 -262 -6 -92 -8 -171 -4 -174 3 -3 22 4 43
16 122 73 379 192 522 242 36 13 68 26 72 30 11 8 -74 151 -114 190 -67 68
-156 85 -267 53z"/>
<path d="M3165 2613 c-51 -13 -68 -14 -123 -3 -53 10 -66 10 -73 -1 -12 -20
-48 -174 -59 -254 -13 -94 -13 -275 0 -275 6 0 28 11 49 24 100 63 418 207
574 260 17 5 15 12 -18 74 -39 76 -98 143 -147 168 -45 23 -133 27 -203 7z"/>
<path d="M1945 2274 c-188 -73 -381 -177 -507 -272 l-48 -36 0 -90 c0 -110
-18 -309 -31 -353 -16 -49 -52 -73 -113 -73 -78 0 -84 8 -93 134 l-8 110 -27
-50 c-38 -70 -68 -187 -68 -265 0 -158 65 -340 163 -460 90 -110 245 -189 343
-174 122 18 238 83 309 172 102 129 204 375 260 628 25 111 27 132 22 275 -4
85 -9 171 -12 190 -3 19 -10 67 -16 105 -18 110 -47 195 -67 194 -9 0 -57 -16
-107 -35z"/>
<path d="M3445 2269 c-199 -79 -371 -172 -497 -267 l-48 -36 0 -85 c0 -105
-17 -303 -31 -353 -14 -53 -50 -78 -113 -78 -28 0 -58 5 -66 10 -11 6 -18 41
-25 121 l-10 113 -27 -55 c-51 -106 -63 -157 -63 -274 0 -86 5 -126 24 -185
68 -220 214 -382 383 -427 61 -16 69 -16 134 0 134 33 223 93 294 197 54 79
131 236 168 340 36 104 88 331 97 425 11 117 -46 531 -81 587 -9 14 -38 8
-139 -33z"/>
</g>
</svg>
